<svg width="155" height="59" viewBox="0 0 155 59" fill="none" xmlns="http://www.w3.org/2000/svg">
<path d="M20 0.5H154.5V58.5H20C9.23045 58.5 0.5 49.7696 0.5 39V20C0.5 9.23045 9.23045 0.5 20 0.5Z" fill="white" stroke="white"/>
<path d="M49.6595 24V10.2H52.2395V21.68H58.2995V24H49.6595ZM65.5117 24.32C61.8917 24.32 60.2717 22.1 60.2717 17.1C60.2717 12.1 61.8917 9.88 65.5117 9.88C69.1317 9.88 70.7517 12.1 70.7517 17.1C70.7517 22.1 69.1317 24.32 65.5117 24.32ZM65.5117 21.96C67.3517 21.96 68.0717 20.68 68.0717 17.1C68.0717 13.62 67.3117 12.24 65.5117 12.24C63.7117 12.24 62.9717 13.62 62.9717 17.1C62.9717 20.68 63.6717 21.96 65.5117 21.96ZM77.5039 24.32C73.8839 24.32 72.2639 22.1 72.2639 17.1C72.2639 12.1 73.8839 9.88 77.5039 9.88C81.1239 9.88 82.7439 12.1 82.7439 17.1C82.7439 22.1 81.1239 24.32 77.5039 24.32ZM77.5039 21.96C79.3439 21.96 80.0639 20.68 80.0639 17.1C80.0639 13.62 79.3039 12.24 77.5039 12.24C75.7039 12.24 74.9639 13.62 74.9639 17.1C74.9639 20.68 75.6639 21.96 77.5039 21.96ZM84.8561 24V10.2H87.4361V15.7H88.7361L92.1361 10.2H94.9761L91.0361 16.8L95.0961 24H92.1361L88.7161 17.98H87.4361V24H84.8561ZM101.468 24.32C98.2283 24.32 96.4483 22.78 96.3683 19.94H98.9283C98.9883 21.3 99.8883 22.02 101.508 22.02C102.988 22.02 103.908 21.4 103.908 20.16C103.908 19.3 103.428 18.74 102.348 18.42L99.7883 17.62C97.6883 16.96 96.6883 15.86 96.6883 13.94C96.6883 11.32 98.6083 9.88 101.448 9.88C104.308 9.88 106.128 11.32 106.248 13.8H103.788C103.648 12.72 102.748 12.12 101.388 12.12C100.088 12.12 99.2683 12.68 99.2683 13.72C99.2683 14.5 99.7283 14.96 100.628 15.24L103.148 16.02C105.448 16.72 106.568 17.8 106.568 19.98C106.568 22.92 104.548 24.32 101.468 24.32ZM58.9756 49.32C55.9156 49.32 54.2956 47.1 54.2956 42.1C54.2956 37.1 55.8756 34.88 59.5556 34.88C62.6956 34.88 64.1756 36.52 64.3756 39.66H61.7956C61.6756 38.14 61.0156 37.24 59.5556 37.24C57.7156 37.24 56.9756 38.62 56.9756 42.1C56.9756 45.68 57.6556 47 59.5556 47C61.1156 47 62.1556 46.12 62.1556 43.88V43.66H59.2956V41.6H64.5756V49H62.8756L62.6356 47.86H62.0756C61.2956 48.86 60.3356 49.32 58.9756 49.32ZM71.5078 49.32C67.8878 49.32 66.2678 47.1 66.2678 42.1C66.2678 37.1 67.8878 34.88 71.5078 34.88C75.1278 34.88 76.7478 37.1 76.7478 42.1C76.7478 47.1 75.1278 49.32 71.5078 49.32ZM71.5078 46.96C73.3478 46.96 74.0678 45.68 74.0678 42.1C74.0678 38.62 73.3078 37.24 71.5078 37.24C69.7078 37.24 68.9678 38.62 68.9678 42.1C68.9678 45.68 69.6678 46.96 71.5078 46.96ZM83.5 49.32C79.88 49.32 78.26 47.1 78.26 42.1C78.26 37.1 79.88 34.88 83.5 34.88C87.12 34.88 88.74 37.1 88.74 42.1C88.74 47.1 87.12 49.32 83.5 49.32ZM83.5 46.96C85.34 46.96 86.06 45.68 86.06 42.1C86.06 38.62 85.3 37.24 83.5 37.24C81.7 37.24 80.96 38.62 80.96 42.1C80.96 45.68 81.66 46.96 83.5 46.96ZM90.7922 49V35.2H95.0922C99.0722 35.2 100.732 37.18 100.732 42.1C100.732 47.02 99.0722 49 95.0922 49H90.7922ZM95.0922 37.52H93.3722V46.68H95.0922C97.3122 46.68 98.0522 45.54 98.0522 42.1C98.0522 38.72 97.2722 37.52 95.0922 37.52ZM106.264 44.22L106.084 35.2H108.884L108.704 44.22H106.264ZM107.484 49.18C106.164 49.18 105.564 48.64 105.564 47.52C105.564 46.38 106.164 45.82 107.484 45.82C108.804 45.82 109.404 46.38 109.404 47.52C109.404 48.64 108.804 49.18 107.484 49.18Z" fill="black"/>
</svg>
