<svg width="155" height="59" viewBox="0 0 155 59" fill="none" xmlns="http://www.w3.org/2000/svg">
<path d="M135 0.5H0.5V58.5H135C145.77 58.5 154.5 49.7696 154.5 39V20C154.5 9.23045 145.77 0.5 135 0.5Z" fill="black" fill-opacity="0.1" stroke="white"/>
<path d="M53.4995 23.32C50.2595 23.32 48.4795 21.78 48.3995 18.94H50.9595C51.0195 20.3 51.9195 21.02 53.5395 21.02C55.0195 21.02 55.9395 20.4 55.9395 19.16C55.9395 18.3 55.4595 17.74 54.3795 17.42L51.8195 16.62C49.7195 15.96 48.7195 14.86 48.7195 12.94C48.7195 10.32 50.6395 8.88 53.4795 8.88C56.3395 8.88 58.1595 10.32 58.2795 12.8H55.8195C55.6795 11.72 54.7795 11.12 53.4195 11.12C52.1195 11.12 51.2995 11.68 51.2995 12.72C51.2995 13.5 51.7595 13.96 52.6595 14.24L55.1795 15.02C57.4795 15.72 58.5995 16.8 58.5995 18.98C58.5995 21.92 56.5795 23.32 53.4995 23.32ZM64.2317 23V11.52H60.4917V9.2H70.5317V11.52H66.7917V23H64.2317ZM72.1239 23L75.1039 9.2H79.9039L82.8839 23H80.1839L79.6439 20.36H75.3039L74.7639 23H72.1239ZM75.7639 18.1H79.1839L77.8239 11.4H77.1239L75.7639 18.1ZM84.7761 23V9.2H89.6161C92.8161 9.2 94.4561 10.54 94.4561 13.1C94.4561 14.84 93.6961 16.16 91.6361 16.68V17.26L92.4561 18.16L94.6961 23H91.8361L89.4561 17.52H87.3561V23H84.7761ZM89.5561 11.42H87.3561V15.32H89.6961C91.1961 15.32 91.8361 14.72 91.8361 13.34C91.8361 11.98 91.1961 11.42 89.5561 11.42ZM100.208 23V11.52H96.4683V9.2H106.508V11.52H102.768V23H100.208ZM65.5117 48.32C61.8917 48.32 60.2717 46.1 60.2717 41.1C60.2717 36.1 61.8917 33.88 65.5117 33.88C69.1317 33.88 70.7517 36.1 70.7517 41.1C70.7517 46.1 69.1317 48.32 65.5117 48.32ZM65.5117 45.96C67.3517 45.96 68.0717 44.68 68.0717 41.1C68.0717 37.62 67.3117 36.24 65.5117 36.24C63.7117 36.24 62.9717 37.62 62.9717 41.1C62.9717 44.68 63.6717 45.96 65.5117 45.96ZM75.1039 48L72.2039 34.2H74.8839L77.1839 45.74H77.8839L80.1839 34.2H82.8039L79.9039 48H75.1039ZM85.1761 48V34.2H94.0761V36.46H87.7561V39.84H93.6961V42.08H87.7561V45.74H94.1961V48H85.1761ZM96.7683 48V34.2H101.608C104.808 34.2 106.448 35.54 106.448 38.1C106.448 39.84 105.688 41.16 103.628 41.68V42.26L104.448 43.16L106.688 48H103.828L101.448 42.52H99.3483V48H96.7683ZM101.548 36.42H99.3483V40.32H101.688C103.188 40.32 103.828 39.72 103.828 38.34C103.828 36.98 103.188 36.42 101.548 36.42Z" fill="white"/>
</svg>
