<svg width="115" height="33" viewBox="0 0 115 33" fill="none" xmlns="http://www.w3.org/2000/svg">
<path d="M99.832 28.908V4.45703H113.7L114.065 9.20125H104.941V15.4417H112.24V20.186H104.941V28.908H99.832Z" fill="white"/>
<path d="M86.1531 29.454C80.7155 29.454 77.3945 25.9141 77.3945 16.5716C77.3945 7.81307 80.8615 3.9082 86.1531 3.9082C91.4447 3.9082 94.9117 7.81307 94.9117 16.5716C94.9117 25.8776 91.5907 29.454 86.1531 29.454ZM82.6132 16.5716C82.6132 22.3377 84.0729 24.6003 86.1531 24.6003C88.2333 24.6003 89.693 22.3377 89.693 16.5716C89.693 11.061 88.5252 8.76191 86.1531 8.76191C83.781 8.76191 82.6132 11.061 82.6132 16.5716Z" fill="white"/>
<path d="M60.5781 28.5383H66.9646V4.08733H60.5781L60.8701 0H71.3439V32.6257H60.8701L60.5781 28.5383Z" fill="white"/>
<path d="M38.1794 28.9066L37.8145 24.1624H44.2739V10.988C42.9601 11.8639 41.3544 12.7398 39.5297 13.6156L37.1211 9.12685C40.4056 7.52111 43.3981 5.80589 46.4636 3.9082L49.3831 5.95187V24.1624H54.6017L54.2368 28.9066H38.1794Z" fill="white"/>
<path d="M25.9597 29.454C20.4491 29.454 17.2012 24.8193 17.2012 16.6081C17.2012 8.39697 20.8141 3.9082 25.9597 3.9082C31.1054 3.9082 34.7183 8.39697 34.7183 16.6081C34.7183 24.8193 31.4703 29.454 25.9597 29.454ZM21.8724 16.6081C21.8724 22.3377 23.4782 24.7098 25.9597 24.7098C28.4413 24.7098 30.0471 22.3377 30.0471 16.6081C30.0471 10.8786 28.4413 8.65243 25.9597 8.65243C23.4782 8.65243 21.8724 10.8786 21.8724 16.6081ZM23.5511 16.6446C23.5511 15.1849 24.6095 14.1995 25.9597 14.1995C27.31 14.1995 28.3683 15.1849 28.3683 16.6446C28.3683 18.1774 27.31 19.1627 25.9597 19.1627C24.6095 19.1627 23.5511 18.1774 23.5511 16.6446Z" fill="white"/>
<path d="M0 32.6257V0H10.4738L10.7657 4.08733H4.37928V28.5383H10.7657L10.4738 32.6257H0Z" fill="white"/>
</svg>
