<svg width="371" height="121" viewBox="0 0 371 121" fill="none" xmlns="http://www.w3.org/2000/svg">
<path d="M356.876 11.4058V12.8122H352.898V23.2109H351.275V12.8122H347.297V11.4058H356.876ZM358.471 11.4058H360.761L364.152 21.3867L367.52 11.4058H369.786V23.2109H368.267V16.2436C368.267 16.0025 368.272 15.6034 368.283 15.0462C368.294 14.489 368.299 13.8917 368.299 13.2541L364.932 23.2109H363.349L359.958 13.2541V13.6158C359.958 13.9051 359.963 14.3471 359.974 14.9417C359.99 15.5311 359.998 15.965 359.998 16.2436V23.2109H358.471V11.4058Z" fill="white"/>
<path d="M293.025 84.8502V13.082H333.73L334.801 27.0072H308.022V45.3242H329.445V59.2493H308.022V84.8502H293.025Z" fill="white"/>
<path d="M252.876 86.4534C236.916 86.4534 227.168 76.0631 227.168 48.6412C227.168 22.9332 237.344 11.4717 252.876 11.4717C268.408 11.4717 278.584 22.9332 278.584 48.6412C278.584 75.9559 268.836 86.4534 252.876 86.4534ZM242.486 48.6412C242.486 65.5656 246.77 72.2069 252.876 72.2069C258.982 72.2069 263.266 65.5656 263.266 48.6412C263.266 32.4666 259.839 25.7182 252.876 25.7182C245.913 25.7182 242.486 32.4666 242.486 48.6412Z" fill="white"/>
<path d="M177.809 83.7653H196.554V11.9971H177.809L178.666 0H209.408V95.7624H178.666L177.809 83.7653Z" fill="white"/>
<path d="M112.063 84.8466L110.992 70.9215H129.952V32.2523C126.096 34.8231 121.383 37.3939 116.027 39.9647L108.957 26.7894C118.598 22.0762 127.381 17.0418 136.379 11.4717L144.948 17.4702V70.9215H160.266L159.195 84.8466H112.063Z" fill="white"/>
<path d="M76.1963 86.4534C60.0217 86.4534 50.4883 72.8496 50.4883 48.7483C50.4883 24.647 61.0929 11.4717 76.1963 11.4717C91.2998 11.4717 101.904 24.647 101.904 48.7483C101.904 72.8496 92.3709 86.4534 76.1963 86.4534ZM64.1992 48.7483C64.1992 65.5656 68.9124 72.5282 76.1963 72.5282C83.4803 72.5282 88.1934 65.5656 88.1934 48.7483C88.1934 31.931 83.4803 25.3969 76.1963 25.3969C68.9124 25.3969 64.1992 31.931 64.1992 48.7483ZM69.1266 48.8554C69.1266 44.5707 72.233 41.6786 76.1963 41.6786C80.1596 41.6786 83.266 44.5707 83.266 48.8554C83.266 53.3543 80.1596 56.2465 76.1963 56.2465C72.233 56.2465 69.1266 53.3543 69.1266 48.8554Z" fill="white"/>
<path d="M0 95.7624V0H30.7425L31.5994 11.9971H12.854V83.7653H31.5994L30.7425 95.7624H0Z" fill="white"/>
</svg>
