<svg width="52" height="76" viewBox="0 0 52 76" fill="none" xmlns="http://www.w3.org/2000/svg">
<path d="M26.1963 75.4534C10.0217 75.4534 0.488281 61.8496 0.488281 37.7483C0.488281 13.647 11.0929 0.47168 26.1963 0.47168C41.2998 0.47168 51.9043 13.647 51.9043 37.7483C51.9043 61.8496 42.3709 75.4534 26.1963 75.4534ZM14.1992 37.7483C14.1992 54.5656 18.9124 61.5282 26.1963 61.5282C33.4803 61.5282 38.1934 54.5656 38.1934 37.7483C38.1934 20.931 33.4803 14.3969 26.1963 14.3969C18.9124 14.3969 14.1992 20.931 14.1992 37.7483ZM19.1266 37.8554C19.1266 33.5707 22.233 30.6786 26.1963 30.6786C30.1596 30.6786 33.266 33.5707 33.266 37.8554C33.266 42.3543 30.1596 45.2465 26.1963 45.2465C22.233 45.2465 19.1266 42.3543 19.1266 37.8554Z" fill="white"/>
</svg>
